<?xml version="1.0" encoding="UTF-8" standalone="no"?>
<!DOCTYPE svg PUBLIC "-//W3C//DTD SVG 1.1//EN"
 "http://www.w3.org/Graphics/SVG/1.1/DTD/svg11.dtd">
<!-- Generated by graphviz version 2.43.0 (0)
 -->
<!-- Title: %3 Pages: 1 -->
<svg width="2827pt" height="236pt"
 viewBox="0.00 0.00 2827.00 236.00" xmlns="http://www.w3.org/2000/svg" xmlns:xlink="http://www.w3.org/1999/xlink">
<g id="graph0" class="graph" transform="scale(1 1) rotate(0) translate(4 232)">
<title>%3</title>
<polygon fill="white" stroke="transparent" points="-4,4 -4,-232 2823,-232 2823,4 -4,4"/>
<!-- node&#45;1 -->
<g id="node1" class="node">
<title>node&#45;1</title>
<polygon fill="none" stroke="black" points="18.5,-181.5 18.5,-227.5 72.5,-227.5 72.5,-181.5 18.5,-181.5"/>
<text text-anchor="middle" x="45.5" y="-212.3" font-family="Helvetica,Arial,sans-serif" font-size="14.00">free</text>
<polyline fill="none" stroke="black" points="18.5,-204.5 72.5,-204.5 "/>
<text text-anchor="middle" x="45.5" y="-189.3" font-family="Helvetica,Arial,sans-serif" font-size="14.00">2</text>
</g>
<!-- node2 -->
<g id="node4" class="node">
<title>node2</title>
<polygon fill="none" stroke="black" points="199,-111.5 199,-203.5 432,-203.5 432,-111.5 199,-111.5"/>
<text text-anchor="middle" x="315.5" y="-188.3" font-family="Helvetica,Arial,sans-serif" font-size="14.00">index = 2</text>
<polyline fill="none" stroke="black" points="199,-180.5 432,-180.5 "/>
<text text-anchor="middle" x="315.5" y="-165.3" font-family="Helvetica,Arial,sans-serif" font-size="14.00">data = 0</text>
<polyline fill="none" stroke="black" points="199,-157.5 432,-157.5 "/>
<text text-anchor="middle" x="315.5" y="-142.3" font-family="Helvetica,Arial,sans-serif" font-size="14.00">next = 3</text>
<polyline fill="none" stroke="black" points="199,-134.5 432,-134.5 "/>
<text text-anchor="middle" x="315.5" y="-119.3" font-family="Helvetica,Arial,sans-serif" font-size="14.00">previous = 18446744073709551615</text>
</g>
<!-- node&#45;1&#45;&gt;node2 -->
<g id="edge22" class="edge">
<title>node&#45;1:f1&#45;&gt;node2:f0</title>
<path fill="none" stroke="green" d="M73.5,-192.5C125.68,-192.5 141.25,-192.5 188.71,-192.5"/>
<polygon fill="green" stroke="green" points="189,-196 199,-192.5 189,-189 189,-196"/>
</g>
<!-- node0 -->
<g id="node2" class="node">
<title>node0</title>
<polygon fill="none" stroke="black" points="279.5,-0.5 279.5,-92.5 351.5,-92.5 351.5,-0.5 279.5,-0.5"/>
<text text-anchor="middle" x="315.5" y="-77.3" font-family="Helvetica,Arial,sans-serif" font-size="14.00">index = 0</text>
<polyline fill="none" stroke="black" points="279.5,-69.5 351.5,-69.5 "/>
<text text-anchor="middle" x="315.5" y="-54.3" font-family="Helvetica,Arial,sans-serif" font-size="14.00"> </text>
<polyline fill="none" stroke="black" points="279.5,-46.5 351.5,-46.5 "/>
<text text-anchor="middle" x="315.5" y="-31.3" font-family="Helvetica,Arial,sans-serif" font-size="14.00">Tail = 1</text>
<polyline fill="none" stroke="black" points="279.5,-23.5 351.5,-23.5 "/>
<text text-anchor="middle" x="315.5" y="-8.3" font-family="Helvetica,Arial,sans-serif" font-size="14.00">Head = 1</text>
</g>
<!-- node1 -->
<g id="node3" class="node">
<title>node1</title>
<polygon fill="none" stroke="black" points="0,-59.5 0,-151.5 91,-151.5 91,-59.5 0,-59.5"/>
<text text-anchor="middle" x="45.5" y="-136.3" font-family="Helvetica,Arial,sans-serif" font-size="14.00">index = 1</text>
<polyline fill="none" stroke="black" points="0,-128.5 91,-128.5 "/>
<text text-anchor="middle" x="45.5" y="-113.3" font-family="Helvetica,Arial,sans-serif" font-size="14.00">data = 777</text>
<polyline fill="none" stroke="black" points="0,-105.5 91,-105.5 "/>
<text text-anchor="middle" x="45.5" y="-90.3" font-family="Helvetica,Arial,sans-serif" font-size="14.00">next = 0</text>
<polyline fill="none" stroke="black" points="0,-82.5 91,-82.5 "/>
<text text-anchor="middle" x="45.5" y="-67.3" font-family="Helvetica,Arial,sans-serif" font-size="14.00">previous = 0</text>
</g>
<!-- node0&#45;&gt;node1 -->
<g id="edge1" class="edge">
<title>node0:f0&#45;&gt;node1:f0</title>
<path fill="none" stroke="white" d="M278.5,-81.5C242.07,-81.5 233.84,-90.85 199,-101.5 153.62,-115.36 143.38,-137.16 101.16,-140.15"/>
<polygon fill="white" stroke="white" points="100.88,-136.66 91,-140.5 101.11,-143.66 100.88,-136.66"/>
</g>
<!-- node0&#45;&gt;node1 -->
<g id="edge10" class="edge">
<title>node0:f2&#45;&gt;node1:f0</title>
<path fill="none" stroke="black" d="M278.5,-34.5C186.23,-34.5 186.57,-132.98 101,-140.09"/>
<polygon fill="black" stroke="black" points="100.85,-136.6 91,-140.5 101.13,-143.59 100.85,-136.6"/>
</g>
<!-- node0&#45;&gt;node1 -->
<g id="edge11" class="edge">
<title>node0:f3&#45;&gt;node1:f0</title>
<path fill="none" stroke="black" d="M278.5,-11.5C180.9,-11.5 191.25,-131.59 101.25,-140.03"/>
<polygon fill="black" stroke="black" points="100.83,-136.55 91,-140.5 101.15,-143.54 100.83,-136.55"/>
</g>
<!-- node1&#45;&gt;node0 -->
<g id="edge12" class="edge">
<title>node1:f2&#45;&gt;node0:f0</title>
<path fill="none" stroke="black" d="M91,-93.5C170.92,-93.5 193.12,-82.51 268.07,-81.56"/>
<polygon fill="black" stroke="black" points="268.52,-85.06 278.5,-81.5 268.48,-78.06 268.52,-85.06"/>
</g>
<!-- node1&#45;&gt;node0 -->
<g id="edge13" class="edge">
<title>node1:f3&#45;&gt;node0:f0</title>
<path fill="none" stroke="black" d="M91,-70.5C170.89,-70.5 193.14,-80.57 268.08,-81.44"/>
<polygon fill="black" stroke="black" points="268.48,-84.94 278.5,-81.5 268.52,-77.94 268.48,-84.94"/>
</g>
<!-- node1&#45;&gt;node2 -->
<g id="edge2" class="edge">
<title>node1:f0&#45;&gt;node2:f0</title>
<path fill="none" stroke="white" d="M91,-140.5C140.63,-140.5 145.29,-185.63 188.77,-191.8"/>
<polygon fill="white" stroke="white" points="188.79,-195.31 199,-192.5 189.26,-188.33 188.79,-195.31"/>
</g>
<!-- node3 -->
<g id="node5" class="node">
<title>node3</title>
<polygon fill="none" stroke="black" points="540,-111.5 540,-203.5 773,-203.5 773,-111.5 540,-111.5"/>
<text text-anchor="middle" x="656.5" y="-188.3" font-family="Helvetica,Arial,sans-serif" font-size="14.00">index = 3</text>
<polyline fill="none" stroke="black" points="540,-180.5 773,-180.5 "/>
<text text-anchor="middle" x="656.5" y="-165.3" font-family="Helvetica,Arial,sans-serif" font-size="14.00">data = 0</text>
<polyline fill="none" stroke="black" points="540,-157.5 773,-157.5 "/>
<text text-anchor="middle" x="656.5" y="-142.3" font-family="Helvetica,Arial,sans-serif" font-size="14.00">next = 4</text>
<polyline fill="none" stroke="black" points="540,-134.5 773,-134.5 "/>
<text text-anchor="middle" x="656.5" y="-119.3" font-family="Helvetica,Arial,sans-serif" font-size="14.00">previous = 18446744073709551615</text>
</g>
<!-- node2&#45;&gt;node3 -->
<g id="edge3" class="edge">
<title>node2:f0&#45;&gt;node3:f0</title>
<path fill="none" stroke="white" d="M432,-192.5C476.44,-192.5 490.02,-192.5 529.88,-192.5"/>
<polygon fill="white" stroke="white" points="530,-196 540,-192.5 530,-189 530,-196"/>
</g>
<!-- node2&#45;&gt;node3 -->
<g id="edge14" class="edge">
<title>node2:f2&#45;&gt;node3:f0</title>
<path fill="none" stroke="black" d="M432,-145.5C480.77,-145.5 486.97,-186.29 529.92,-191.87"/>
<polygon fill="black" stroke="black" points="529.8,-195.37 540,-192.5 530.24,-188.38 529.8,-195.37"/>
</g>
<!-- node4 -->
<g id="node6" class="node">
<title>node4</title>
<polygon fill="none" stroke="black" points="881,-111.5 881,-203.5 1114,-203.5 1114,-111.5 881,-111.5"/>
<text text-anchor="middle" x="997.5" y="-188.3" font-family="Helvetica,Arial,sans-serif" font-size="14.00">index = 4</text>
<polyline fill="none" stroke="black" points="881,-180.5 1114,-180.5 "/>
<text text-anchor="middle" x="997.5" y="-165.3" font-family="Helvetica,Arial,sans-serif" font-size="14.00">data = 0</text>
<polyline fill="none" stroke="black" points="881,-157.5 1114,-157.5 "/>
<text text-anchor="middle" x="997.5" y="-142.3" font-family="Helvetica,Arial,sans-serif" font-size="14.00">next = 5</text>
<polyline fill="none" stroke="black" points="881,-134.5 1114,-134.5 "/>
<text text-anchor="middle" x="997.5" y="-119.3" font-family="Helvetica,Arial,sans-serif" font-size="14.00">previous = 18446744073709551615</text>
</g>
<!-- node3&#45;&gt;node4 -->
<g id="edge4" class="edge">
<title>node3:f0&#45;&gt;node4:f0</title>
<path fill="none" stroke="white" d="M773,-192.5C817.44,-192.5 831.02,-192.5 870.88,-192.5"/>
<polygon fill="white" stroke="white" points="871,-196 881,-192.5 871,-189 871,-196"/>
</g>
<!-- node3&#45;&gt;node4 -->
<g id="edge15" class="edge">
<title>node3:f2&#45;&gt;node4:f0</title>
<path fill="none" stroke="black" d="M773,-145.5C821.77,-145.5 827.97,-186.29 870.92,-191.87"/>
<polygon fill="black" stroke="black" points="870.8,-195.37 881,-192.5 871.24,-188.38 870.8,-195.37"/>
</g>
<!-- node5 -->
<g id="node7" class="node">
<title>node5</title>
<polygon fill="none" stroke="black" points="1222,-111.5 1222,-203.5 1455,-203.5 1455,-111.5 1222,-111.5"/>
<text text-anchor="middle" x="1338.5" y="-188.3" font-family="Helvetica,Arial,sans-serif" font-size="14.00">index = 5</text>
<polyline fill="none" stroke="black" points="1222,-180.5 1455,-180.5 "/>
<text text-anchor="middle" x="1338.5" y="-165.3" font-family="Helvetica,Arial,sans-serif" font-size="14.00">data = 0</text>
<polyline fill="none" stroke="black" points="1222,-157.5 1455,-157.5 "/>
<text text-anchor="middle" x="1338.5" y="-142.3" font-family="Helvetica,Arial,sans-serif" font-size="14.00">next = 6</text>
<polyline fill="none" stroke="black" points="1222,-134.5 1455,-134.5 "/>
<text text-anchor="middle" x="1338.5" y="-119.3" font-family="Helvetica,Arial,sans-serif" font-size="14.00">previous = 18446744073709551615</text>
</g>
<!-- node4&#45;&gt;node5 -->
<g id="edge5" class="edge">
<title>node4:f0&#45;&gt;node5:f0</title>
<path fill="none" stroke="white" d="M1114,-192.5C1158.44,-192.5 1172.02,-192.5 1211.88,-192.5"/>
<polygon fill="white" stroke="white" points="1212,-196 1222,-192.5 1212,-189 1212,-196"/>
</g>
<!-- node4&#45;&gt;node5 -->
<g id="edge16" class="edge">
<title>node4:f2&#45;&gt;node5:f0</title>
<path fill="none" stroke="black" d="M1114,-145.5C1162.77,-145.5 1168.97,-186.29 1211.92,-191.87"/>
<polygon fill="black" stroke="black" points="1211.8,-195.37 1222,-192.5 1212.24,-188.38 1211.8,-195.37"/>
</g>
<!-- node6 -->
<g id="node8" class="node">
<title>node6</title>
<polygon fill="none" stroke="black" points="1563,-111.5 1563,-203.5 1796,-203.5 1796,-111.5 1563,-111.5"/>
<text text-anchor="middle" x="1679.5" y="-188.3" font-family="Helvetica,Arial,sans-serif" font-size="14.00">index = 6</text>
<polyline fill="none" stroke="black" points="1563,-180.5 1796,-180.5 "/>
<text text-anchor="middle" x="1679.5" y="-165.3" font-family="Helvetica,Arial,sans-serif" font-size="14.00">data = 0</text>
<polyline fill="none" stroke="black" points="1563,-157.5 1796,-157.5 "/>
<text text-anchor="middle" x="1679.5" y="-142.3" font-family="Helvetica,Arial,sans-serif" font-size="14.00">next = 7</text>
<polyline fill="none" stroke="black" points="1563,-134.5 1796,-134.5 "/>
<text text-anchor="middle" x="1679.5" y="-119.3" font-family="Helvetica,Arial,sans-serif" font-size="14.00">previous = 18446744073709551615</text>
</g>
<!-- node5&#45;&gt;node6 -->
<g id="edge6" class="edge">
<title>node5:f0&#45;&gt;node6:f0</title>
<path fill="none" stroke="white" d="M1455,-192.5C1499.44,-192.5 1513.02,-192.5 1552.88,-192.5"/>
<polygon fill="white" stroke="white" points="1553,-196 1563,-192.5 1553,-189 1553,-196"/>
</g>
<!-- node5&#45;&gt;node6 -->
<g id="edge17" class="edge">
<title>node5:f2&#45;&gt;node6:f0</title>
<path fill="none" stroke="black" d="M1455,-145.5C1503.77,-145.5 1509.97,-186.29 1552.92,-191.87"/>
<polygon fill="black" stroke="black" points="1552.8,-195.37 1563,-192.5 1553.24,-188.38 1552.8,-195.37"/>
</g>
<!-- node7 -->
<g id="node9" class="node">
<title>node7</title>
<polygon fill="none" stroke="black" points="1904,-111.5 1904,-203.5 2137,-203.5 2137,-111.5 1904,-111.5"/>
<text text-anchor="middle" x="2020.5" y="-188.3" font-family="Helvetica,Arial,sans-serif" font-size="14.00">index = 7</text>
<polyline fill="none" stroke="black" points="1904,-180.5 2137,-180.5 "/>
<text text-anchor="middle" x="2020.5" y="-165.3" font-family="Helvetica,Arial,sans-serif" font-size="14.00">data = 0</text>
<polyline fill="none" stroke="black" points="1904,-157.5 2137,-157.5 "/>
<text text-anchor="middle" x="2020.5" y="-142.3" font-family="Helvetica,Arial,sans-serif" font-size="14.00">next = 8</text>
<polyline fill="none" stroke="black" points="1904,-134.5 2137,-134.5 "/>
<text text-anchor="middle" x="2020.5" y="-119.3" font-family="Helvetica,Arial,sans-serif" font-size="14.00">previous = 18446744073709551615</text>
</g>
<!-- node6&#45;&gt;node7 -->
<g id="edge7" class="edge">
<title>node6:f0&#45;&gt;node7:f0</title>
<path fill="none" stroke="white" d="M1796,-192.5C1840.44,-192.5 1854.02,-192.5 1893.88,-192.5"/>
<polygon fill="white" stroke="white" points="1894,-196 1904,-192.5 1894,-189 1894,-196"/>
</g>
<!-- node6&#45;&gt;node7 -->
<g id="edge18" class="edge">
<title>node6:f2&#45;&gt;node7:f0</title>
<path fill="none" stroke="black" d="M1796,-145.5C1844.77,-145.5 1850.97,-186.29 1893.92,-191.87"/>
<polygon fill="black" stroke="black" points="1893.8,-195.37 1904,-192.5 1894.24,-188.38 1893.8,-195.37"/>
</g>
<!-- node8 -->
<g id="node10" class="node">
<title>node8</title>
<polygon fill="none" stroke="black" points="2245,-111.5 2245,-203.5 2478,-203.5 2478,-111.5 2245,-111.5"/>
<text text-anchor="middle" x="2361.5" y="-188.3" font-family="Helvetica,Arial,sans-serif" font-size="14.00">index = 8</text>
<polyline fill="none" stroke="black" points="2245,-180.5 2478,-180.5 "/>
<text text-anchor="middle" x="2361.5" y="-165.3" font-family="Helvetica,Arial,sans-serif" font-size="14.00">data = 0</text>
<polyline fill="none" stroke="black" points="2245,-157.5 2478,-157.5 "/>
<text text-anchor="middle" x="2361.5" y="-142.3" font-family="Helvetica,Arial,sans-serif" font-size="14.00">next = 9</text>
<polyline fill="none" stroke="black" points="2245,-134.5 2478,-134.5 "/>
<text text-anchor="middle" x="2361.5" y="-119.3" font-family="Helvetica,Arial,sans-serif" font-size="14.00">previous = 18446744073709551615</text>
</g>
<!-- node7&#45;&gt;node8 -->
<g id="edge8" class="edge">
<title>node7:f0&#45;&gt;node8:f0</title>
<path fill="none" stroke="white" d="M2137,-192.5C2181.44,-192.5 2195.02,-192.5 2234.88,-192.5"/>
<polygon fill="white" stroke="white" points="2235,-196 2245,-192.5 2235,-189 2235,-196"/>
</g>
<!-- node7&#45;&gt;node8 -->
<g id="edge19" class="edge">
<title>node7:f2&#45;&gt;node8:f0</title>
<path fill="none" stroke="black" d="M2137,-145.5C2185.77,-145.5 2191.97,-186.29 2234.92,-191.87"/>
<polygon fill="black" stroke="black" points="2234.8,-195.37 2245,-192.5 2235.24,-188.38 2234.8,-195.37"/>
</g>
<!-- node9 -->
<g id="node11" class="node">
<title>node9</title>
<polygon fill="none" stroke="black" points="2586,-111.5 2586,-203.5 2819,-203.5 2819,-111.5 2586,-111.5"/>
<text text-anchor="middle" x="2702.5" y="-188.3" font-family="Helvetica,Arial,sans-serif" font-size="14.00">index = 9</text>
<polyline fill="none" stroke="black" points="2586,-180.5 2819,-180.5 "/>
<text text-anchor="middle" x="2702.5" y="-165.3" font-family="Helvetica,Arial,sans-serif" font-size="14.00">data = 0</text>
<polyline fill="none" stroke="black" points="2586,-157.5 2819,-157.5 "/>
<text text-anchor="middle" x="2702.5" y="-142.3" font-family="Helvetica,Arial,sans-serif" font-size="14.00">next = 9</text>
<polyline fill="none" stroke="black" points="2586,-134.5 2819,-134.5 "/>
<text text-anchor="middle" x="2702.5" y="-119.3" font-family="Helvetica,Arial,sans-serif" font-size="14.00">previous = 18446744073709551615</text>
</g>
<!-- node8&#45;&gt;node9 -->
<g id="edge9" class="edge">
<title>node8:f0&#45;&gt;node9:f0</title>
<path fill="none" stroke="white" d="M2478,-192.5C2522.44,-192.5 2536.02,-192.5 2575.88,-192.5"/>
<polygon fill="white" stroke="white" points="2576,-196 2586,-192.5 2576,-189 2576,-196"/>
</g>
<!-- node8&#45;&gt;node9 -->
<g id="edge20" class="edge">
<title>node8:f2&#45;&gt;node9:f0</title>
<path fill="none" stroke="black" d="M2478,-145.5C2526.77,-145.5 2532.97,-186.29 2575.92,-191.87"/>
<polygon fill="black" stroke="black" points="2575.8,-195.37 2586,-192.5 2576.24,-188.38 2575.8,-195.37"/>
</g>
<!-- node9&#45;&gt;node9 -->
<g id="edge21" class="edge">
<title>node9:f2&#45;&gt;node9:f0</title>
<path fill="none" stroke="black" d="M2585.9,-140.37C2500.97,-140.1 2416,-147.32 2416,-169 2416,-189.79 2494.14,-197.28 2575.46,-197.62"/>
<polygon fill="black" stroke="black" points="2575.9,-201.12 2585.9,-197.63 2575.9,-194.12 2575.9,-201.12"/>
</g>
</g>
</svg>
