<?xml version="1.0" encoding="UTF-8" standalone="no"?>
<!DOCTYPE svg PUBLIC "-//W3C//DTD SVG 1.1//EN"
 "http://www.w3.org/Graphics/SVG/1.1/DTD/svg11.dtd">
<!-- Generated by graphviz version 2.43.0 (0)
 -->
<!-- Title: %3 Pages: 1 -->
<svg width="1804pt" height="399pt"
 viewBox="0.00 0.00 1804.00 398.56" xmlns="http://www.w3.org/2000/svg" xmlns:xlink="http://www.w3.org/1999/xlink">
<g id="graph0" class="graph" transform="scale(1 1) rotate(0) translate(4 394.56)">
<title>%3</title>
<polygon fill="white" stroke="transparent" points="-4,4 -4,-394.56 1800,-394.56 1800,4 -4,4"/>
<!-- node&#45;1 -->
<g id="node1" class="node">
<title>node&#45;1</title>
<polygon fill="none" stroke="black" points="18.5,-344.06 18.5,-390.06 72.5,-390.06 72.5,-344.06 18.5,-344.06"/>
<text text-anchor="middle" x="45.5" y="-374.86" font-family="Helvetica,Arial,sans-serif" font-size="14.00">free</text>
<polyline fill="none" stroke="black" points="18.5,-367.06 72.5,-367.06 "/>
<text text-anchor="middle" x="45.5" y="-351.86" font-family="Helvetica,Arial,sans-serif" font-size="14.00">5</text>
</g>
<!-- node5 -->
<g id="node7" class="node">
<title>node5</title>
<polygon fill="none" stroke="black" points="199,-274.06 199,-366.06 432,-366.06 432,-274.06 199,-274.06"/>
<text text-anchor="middle" x="315.5" y="-350.86" font-family="Helvetica,Arial,sans-serif" font-size="14.00">index = 5</text>
<polyline fill="none" stroke="black" points="199,-343.06 432,-343.06 "/>
<text text-anchor="middle" x="315.5" y="-327.86" font-family="Helvetica,Arial,sans-serif" font-size="14.00">data = 0</text>
<polyline fill="none" stroke="black" points="199,-320.06 432,-320.06 "/>
<text text-anchor="middle" x="315.5" y="-304.86" font-family="Helvetica,Arial,sans-serif" font-size="14.00">next = 6</text>
<polyline fill="none" stroke="black" points="199,-297.06 432,-297.06 "/>
<text text-anchor="middle" x="315.5" y="-281.86" font-family="Helvetica,Arial,sans-serif" font-size="14.00">previous = 18446744073709551615</text>
</g>
<!-- node&#45;1&#45;&gt;node5 -->
<g id="edge25" class="edge">
<title>node&#45;1:f1&#45;&gt;node5:f0</title>
<path fill="none" stroke="green" d="M73.5,-355.06C125.68,-355.06 141.25,-355.06 188.71,-355.06"/>
<polygon fill="green" stroke="green" points="189,-358.56 199,-355.06 189,-351.56 189,-358.56"/>
</g>
<!-- node0 -->
<g id="node2" class="node">
<title>node0</title>
<polygon fill="none" stroke="black" points="279.5,-124.06 279.5,-216.06 351.5,-216.06 351.5,-124.06 279.5,-124.06"/>
<text text-anchor="middle" x="315.5" y="-200.86" font-family="Helvetica,Arial,sans-serif" font-size="14.00">index = 0</text>
<polyline fill="none" stroke="black" points="279.5,-193.06 351.5,-193.06 "/>
<text text-anchor="middle" x="315.5" y="-177.86" font-family="Helvetica,Arial,sans-serif" font-size="14.00"> </text>
<polyline fill="none" stroke="black" points="279.5,-170.06 351.5,-170.06 "/>
<text text-anchor="middle" x="315.5" y="-154.86" font-family="Helvetica,Arial,sans-serif" font-size="14.00">Tail = 1</text>
<polyline fill="none" stroke="black" points="279.5,-147.06 351.5,-147.06 "/>
<text text-anchor="middle" x="315.5" y="-131.86" font-family="Helvetica,Arial,sans-serif" font-size="14.00">Head = 4</text>
</g>
<!-- node1 -->
<g id="node3" class="node">
<title>node1</title>
<polygon fill="none" stroke="black" points="611,-124.06 611,-216.06 702,-216.06 702,-124.06 611,-124.06"/>
<text text-anchor="middle" x="656.5" y="-200.86" font-family="Helvetica,Arial,sans-serif" font-size="14.00">index = 1</text>
<polyline fill="none" stroke="black" points="611,-193.06 702,-193.06 "/>
<text text-anchor="middle" x="656.5" y="-177.86" font-family="Helvetica,Arial,sans-serif" font-size="14.00">data = 777</text>
<polyline fill="none" stroke="black" points="611,-170.06 702,-170.06 "/>
<text text-anchor="middle" x="656.5" y="-154.86" font-family="Helvetica,Arial,sans-serif" font-size="14.00">next = 2</text>
<polyline fill="none" stroke="black" points="611,-147.06 702,-147.06 "/>
<text text-anchor="middle" x="656.5" y="-131.86" font-family="Helvetica,Arial,sans-serif" font-size="14.00">previous = 0</text>
</g>
<!-- node0&#45;&gt;node1 -->
<g id="edge1" class="edge">
<title>node0:f0&#45;&gt;node1:f0</title>
<path fill="none" stroke="white" d="M352.5,-205.06C463.26,-205.06 493.47,-205.06 599.36,-205.06"/>
<polygon fill="white" stroke="white" points="599.5,-208.56 609.5,-205.06 599.5,-201.56 599.5,-208.56"/>
</g>
<!-- node0&#45;&gt;node1 -->
<g id="edge10" class="edge">
<title>node0:f2&#45;&gt;node1:f0</title>
<path fill="none" stroke="black" d="M352.5,-158.06C465.1,-158.06 491.8,-202.25 599.2,-204.93"/>
<polygon fill="black" stroke="black" points="599.46,-208.43 609.5,-205.06 599.54,-201.43 599.46,-208.43"/>
</g>
<!-- node4 -->
<g id="node6" class="node">
<title>node4</title>
<polygon fill="none" stroke="black" points="0,-164.06 0,-256.06 91,-256.06 91,-164.06 0,-164.06"/>
<text text-anchor="middle" x="45.5" y="-240.86" font-family="Helvetica,Arial,sans-serif" font-size="14.00">index = 4</text>
<polyline fill="none" stroke="black" points="0,-233.06 91,-233.06 "/>
<text text-anchor="middle" x="45.5" y="-217.86" font-family="Helvetica,Arial,sans-serif" font-size="14.00">data = 100</text>
<polyline fill="none" stroke="black" points="0,-210.06 91,-210.06 "/>
<text text-anchor="middle" x="45.5" y="-194.86" font-family="Helvetica,Arial,sans-serif" font-size="14.00">next = 0</text>
<polyline fill="none" stroke="black" points="0,-187.06 91,-187.06 "/>
<text text-anchor="middle" x="45.5" y="-171.86" font-family="Helvetica,Arial,sans-serif" font-size="14.00">previous = 3</text>
</g>
<!-- node0&#45;&gt;node4 -->
<g id="edge11" class="edge">
<title>node0:f3&#45;&gt;node4:f0</title>
<path fill="none" stroke="black" d="M278.5,-135.06C185.38,-135.06 187.34,-237.25 101.08,-244.64"/>
<polygon fill="black" stroke="black" points="100.85,-241.14 91,-245.06 101.14,-248.14 100.85,-241.14"/>
</g>
<!-- node1&#45;&gt;node0 -->
<g id="edge13" class="edge">
<title>node1:f3&#45;&gt;node0:f0</title>
<path fill="none" stroke="black" d="M609.5,-135.06C494.58,-135.06 472.15,-201.02 362.66,-204.88"/>
<polygon fill="black" stroke="black" points="362.44,-201.38 352.5,-205.06 362.56,-208.38 362.44,-201.38"/>
</g>
<!-- node2 -->
<g id="node4" class="node">
<title>node2</title>
<polygon fill="none" stroke="black" points="952,-124.06 952,-216.06 1043,-216.06 1043,-124.06 952,-124.06"/>
<text text-anchor="middle" x="997.5" y="-200.86" font-family="Helvetica,Arial,sans-serif" font-size="14.00">index = 2</text>
<polyline fill="none" stroke="black" points="952,-193.06 1043,-193.06 "/>
<text text-anchor="middle" x="997.5" y="-177.86" font-family="Helvetica,Arial,sans-serif" font-size="14.00">data = 100</text>
<polyline fill="none" stroke="black" points="952,-170.06 1043,-170.06 "/>
<text text-anchor="middle" x="997.5" y="-154.86" font-family="Helvetica,Arial,sans-serif" font-size="14.00">next = 3</text>
<polyline fill="none" stroke="black" points="952,-147.06 1043,-147.06 "/>
<text text-anchor="middle" x="997.5" y="-131.86" font-family="Helvetica,Arial,sans-serif" font-size="14.00">previous = 1</text>
</g>
<!-- node1&#45;&gt;node2 -->
<g id="edge2" class="edge">
<title>node1:f0&#45;&gt;node2:f0</title>
<path fill="none" stroke="white" d="M703.5,-205.06C809.85,-205.06 838.93,-205.06 940.44,-205.06"/>
<polygon fill="white" stroke="white" points="940.5,-208.56 950.5,-205.06 940.5,-201.56 940.5,-208.56"/>
</g>
<!-- node1&#45;&gt;node2 -->
<g id="edge12" class="edge">
<title>node1:f2&#45;&gt;node2:f0</title>
<path fill="none" stroke="black" d="M703.5,-158.06C811.76,-158.06 837.2,-202.17 940.28,-204.92"/>
<polygon fill="black" stroke="black" points="940.45,-208.42 950.5,-205.06 940.55,-201.43 940.45,-208.42"/>
</g>
<!-- node2&#45;&gt;node1 -->
<g id="edge15" class="edge">
<title>node2:f3&#45;&gt;node1:f0</title>
<path fill="none" stroke="black" d="M950.5,-135.06C839.85,-135.06 818.83,-200.88 713.61,-204.87"/>
<polygon fill="black" stroke="black" points="713.43,-201.37 703.5,-205.06 713.56,-208.37 713.43,-201.37"/>
</g>
<!-- node3 -->
<g id="node5" class="node">
<title>node3</title>
<polygon fill="none" stroke="black" points="1293,-124.06 1293,-216.06 1384,-216.06 1384,-124.06 1293,-124.06"/>
<text text-anchor="middle" x="1338.5" y="-200.86" font-family="Helvetica,Arial,sans-serif" font-size="14.00">index = 3</text>
<polyline fill="none" stroke="black" points="1293,-193.06 1384,-193.06 "/>
<text text-anchor="middle" x="1338.5" y="-177.86" font-family="Helvetica,Arial,sans-serif" font-size="14.00">data = 100</text>
<polyline fill="none" stroke="black" points="1293,-170.06 1384,-170.06 "/>
<text text-anchor="middle" x="1338.5" y="-154.86" font-family="Helvetica,Arial,sans-serif" font-size="14.00">next = 4</text>
<polyline fill="none" stroke="black" points="1293,-147.06 1384,-147.06 "/>
<text text-anchor="middle" x="1338.5" y="-131.86" font-family="Helvetica,Arial,sans-serif" font-size="14.00">previous = 2</text>
</g>
<!-- node2&#45;&gt;node3 -->
<g id="edge3" class="edge">
<title>node2:f0&#45;&gt;node3:f0</title>
<path fill="none" stroke="white" d="M1044.5,-205.06C1150.85,-205.06 1179.93,-205.06 1281.44,-205.06"/>
<polygon fill="white" stroke="white" points="1281.5,-208.56 1291.5,-205.06 1281.5,-201.56 1281.5,-208.56"/>
</g>
<!-- node2&#45;&gt;node3 -->
<g id="edge14" class="edge">
<title>node2:f2&#45;&gt;node3:f0</title>
<path fill="none" stroke="black" d="M1044.5,-158.06C1152.76,-158.06 1178.2,-202.17 1281.28,-204.92"/>
<polygon fill="black" stroke="black" points="1281.45,-208.42 1291.5,-205.06 1281.55,-201.43 1281.45,-208.42"/>
</g>
<!-- node3&#45;&gt;node2 -->
<g id="edge17" class="edge">
<title>node3:f3&#45;&gt;node2:f0</title>
<path fill="none" stroke="black" d="M1291.5,-135.06C1180.85,-135.06 1159.83,-200.88 1054.61,-204.87"/>
<polygon fill="black" stroke="black" points="1054.43,-201.37 1044.5,-205.06 1054.56,-208.37 1054.43,-201.37"/>
</g>
<!-- node3&#45;&gt;node4 -->
<g id="edge4" class="edge">
<title>node3:f0&#45;&gt;node4:f0</title>
<path fill="none" stroke="white" d="M1291.5,-205.06C1212.06,-205.06 1193.25,-220.65 1114,-226.06 663.74,-256.8 547.5,-245.24 101.27,-245.06"/>
<polygon fill="white" stroke="white" points="101,-241.56 91,-245.06 101,-248.56 101,-241.56"/>
</g>
<!-- node3&#45;&gt;node4 -->
<g id="edge16" class="edge">
<title>node3:f2&#45;&gt;node4:f0</title>
<path fill="none" stroke="black" d="M1291.5,-158.06C1210.33,-158.06 1194.6,-124.68 1114,-115.06 1013.05,-103 291.04,-71.87 199,-115.06 134.32,-145.41 162.93,-235.64 101.24,-244.37"/>
<polygon fill="black" stroke="black" points="100.75,-240.9 91,-245.06 101.21,-247.88 100.75,-240.9"/>
</g>
<!-- node4&#45;&gt;node0 -->
<g id="edge18" class="edge">
<title>node4:f2&#45;&gt;node0:f0</title>
<path fill="none" stroke="black" d="M91,-198.06C170.81,-198.06 193.21,-204.47 268.09,-205.02"/>
<polygon fill="black" stroke="black" points="268.49,-208.52 278.5,-205.06 268.51,-201.52 268.49,-208.52"/>
</g>
<!-- node4&#45;&gt;node3 -->
<g id="edge19" class="edge">
<title>node4:f3&#45;&gt;node3:f0</title>
<path fill="none" stroke="black" d="M91,-175.06C152.08,-175.06 141.31,-110.13 199,-90.06 583.09,43.59 723.73,17.3 1114,-97.06 1199.24,-122.03 1199.29,-198.89 1281.36,-204.71"/>
<polygon fill="black" stroke="black" points="1281.39,-208.21 1291.5,-205.06 1281.63,-201.22 1281.39,-208.21"/>
</g>
<!-- node4&#45;&gt;node5 -->
<g id="edge5" class="edge">
<title>node4:f0&#45;&gt;node5:f0</title>
<path fill="none" stroke="white" d="M91,-245.06C155.9,-245.06 133.28,-343.76 188.95,-354.17"/>
<polygon fill="white" stroke="white" points="188.73,-357.67 199,-355.06 189.35,-350.69 188.73,-357.67"/>
</g>
<!-- node6 -->
<g id="node8" class="node">
<title>node6</title>
<polygon fill="none" stroke="black" points="540,-274.06 540,-366.06 773,-366.06 773,-274.06 540,-274.06"/>
<text text-anchor="middle" x="656.5" y="-350.86" font-family="Helvetica,Arial,sans-serif" font-size="14.00">index = 6</text>
<polyline fill="none" stroke="black" points="540,-343.06 773,-343.06 "/>
<text text-anchor="middle" x="656.5" y="-327.86" font-family="Helvetica,Arial,sans-serif" font-size="14.00">data = 0</text>
<polyline fill="none" stroke="black" points="540,-320.06 773,-320.06 "/>
<text text-anchor="middle" x="656.5" y="-304.86" font-family="Helvetica,Arial,sans-serif" font-size="14.00">next = 7</text>
<polyline fill="none" stroke="black" points="540,-297.06 773,-297.06 "/>
<text text-anchor="middle" x="656.5" y="-281.86" font-family="Helvetica,Arial,sans-serif" font-size="14.00">previous = 18446744073709551615</text>
</g>
<!-- node5&#45;&gt;node6 -->
<g id="edge6" class="edge">
<title>node5:f0&#45;&gt;node6:f0</title>
<path fill="none" stroke="white" d="M432,-355.06C476.44,-355.06 490.02,-355.06 529.88,-355.06"/>
<polygon fill="white" stroke="white" points="530,-358.56 540,-355.06 530,-351.56 530,-358.56"/>
</g>
<!-- node5&#45;&gt;node6 -->
<g id="edge20" class="edge">
<title>node5:f2&#45;&gt;node6:f0</title>
<path fill="none" stroke="black" d="M432,-308.06C480.77,-308.06 486.97,-348.85 529.92,-354.43"/>
<polygon fill="black" stroke="black" points="529.8,-357.93 540,-355.06 530.24,-350.94 529.8,-357.93"/>
</g>
<!-- node7 -->
<g id="node9" class="node">
<title>node7</title>
<polygon fill="none" stroke="black" points="881,-274.06 881,-366.06 1114,-366.06 1114,-274.06 881,-274.06"/>
<text text-anchor="middle" x="997.5" y="-350.86" font-family="Helvetica,Arial,sans-serif" font-size="14.00">index = 7</text>
<polyline fill="none" stroke="black" points="881,-343.06 1114,-343.06 "/>
<text text-anchor="middle" x="997.5" y="-327.86" font-family="Helvetica,Arial,sans-serif" font-size="14.00">data = 0</text>
<polyline fill="none" stroke="black" points="881,-320.06 1114,-320.06 "/>
<text text-anchor="middle" x="997.5" y="-304.86" font-family="Helvetica,Arial,sans-serif" font-size="14.00">next = 8</text>
<polyline fill="none" stroke="black" points="881,-297.06 1114,-297.06 "/>
<text text-anchor="middle" x="997.5" y="-281.86" font-family="Helvetica,Arial,sans-serif" font-size="14.00">previous = 18446744073709551615</text>
</g>
<!-- node6&#45;&gt;node7 -->
<g id="edge7" class="edge">
<title>node6:f0&#45;&gt;node7:f0</title>
<path fill="none" stroke="white" d="M773,-355.06C817.44,-355.06 831.02,-355.06 870.88,-355.06"/>
<polygon fill="white" stroke="white" points="871,-358.56 881,-355.06 871,-351.56 871,-358.56"/>
</g>
<!-- node6&#45;&gt;node7 -->
<g id="edge21" class="edge">
<title>node6:f2&#45;&gt;node7:f0</title>
<path fill="none" stroke="black" d="M773,-308.06C821.77,-308.06 827.97,-348.85 870.92,-354.43"/>
<polygon fill="black" stroke="black" points="870.8,-357.93 881,-355.06 871.24,-350.94 870.8,-357.93"/>
</g>
<!-- node8 -->
<g id="node10" class="node">
<title>node8</title>
<polygon fill="none" stroke="black" points="1222,-274.06 1222,-366.06 1455,-366.06 1455,-274.06 1222,-274.06"/>
<text text-anchor="middle" x="1338.5" y="-350.86" font-family="Helvetica,Arial,sans-serif" font-size="14.00">index = 8</text>
<polyline fill="none" stroke="black" points="1222,-343.06 1455,-343.06 "/>
<text text-anchor="middle" x="1338.5" y="-327.86" font-family="Helvetica,Arial,sans-serif" font-size="14.00">data = 0</text>
<polyline fill="none" stroke="black" points="1222,-320.06 1455,-320.06 "/>
<text text-anchor="middle" x="1338.5" y="-304.86" font-family="Helvetica,Arial,sans-serif" font-size="14.00">next = 9</text>
<polyline fill="none" stroke="black" points="1222,-297.06 1455,-297.06 "/>
<text text-anchor="middle" x="1338.5" y="-281.86" font-family="Helvetica,Arial,sans-serif" font-size="14.00">previous = 18446744073709551615</text>
</g>
<!-- node7&#45;&gt;node8 -->
<g id="edge8" class="edge">
<title>node7:f0&#45;&gt;node8:f0</title>
<path fill="none" stroke="white" d="M1114,-355.06C1158.44,-355.06 1172.02,-355.06 1211.88,-355.06"/>
<polygon fill="white" stroke="white" points="1212,-358.56 1222,-355.06 1212,-351.56 1212,-358.56"/>
</g>
<!-- node7&#45;&gt;node8 -->
<g id="edge22" class="edge">
<title>node7:f2&#45;&gt;node8:f0</title>
<path fill="none" stroke="black" d="M1114,-308.06C1162.77,-308.06 1168.97,-348.85 1211.92,-354.43"/>
<polygon fill="black" stroke="black" points="1211.8,-357.93 1222,-355.06 1212.24,-350.94 1211.8,-357.93"/>
</g>
<!-- node9 -->
<g id="node11" class="node">
<title>node9</title>
<polygon fill="none" stroke="black" points="1563,-274.06 1563,-366.06 1796,-366.06 1796,-274.06 1563,-274.06"/>
<text text-anchor="middle" x="1679.5" y="-350.86" font-family="Helvetica,Arial,sans-serif" font-size="14.00">index = 9</text>
<polyline fill="none" stroke="black" points="1563,-343.06 1796,-343.06 "/>
<text text-anchor="middle" x="1679.5" y="-327.86" font-family="Helvetica,Arial,sans-serif" font-size="14.00">data = 0</text>
<polyline fill="none" stroke="black" points="1563,-320.06 1796,-320.06 "/>
<text text-anchor="middle" x="1679.5" y="-304.86" font-family="Helvetica,Arial,sans-serif" font-size="14.00">next = 9</text>
<polyline fill="none" stroke="black" points="1563,-297.06 1796,-297.06 "/>
<text text-anchor="middle" x="1679.5" y="-281.86" font-family="Helvetica,Arial,sans-serif" font-size="14.00">previous = 18446744073709551615</text>
</g>
<!-- node8&#45;&gt;node9 -->
<g id="edge9" class="edge">
<title>node8:f0&#45;&gt;node9:f0</title>
<path fill="none" stroke="white" d="M1455,-355.06C1499.44,-355.06 1513.02,-355.06 1552.88,-355.06"/>
<polygon fill="white" stroke="white" points="1553,-358.56 1563,-355.06 1553,-351.56 1553,-358.56"/>
</g>
<!-- node8&#45;&gt;node9 -->
<g id="edge23" class="edge">
<title>node8:f2&#45;&gt;node9:f0</title>
<path fill="none" stroke="black" d="M1455,-308.06C1503.77,-308.06 1509.97,-348.85 1552.92,-354.43"/>
<polygon fill="black" stroke="black" points="1552.8,-357.93 1563,-355.06 1553.24,-350.94 1552.8,-357.93"/>
</g>
<!-- node9&#45;&gt;node9 -->
<g id="edge24" class="edge">
<title>node9:f2&#45;&gt;node9:f0</title>
<path fill="none" stroke="black" d="M1562.9,-302.93C1477.97,-302.66 1393,-309.88 1393,-331.56 1393,-352.35 1471.14,-359.84 1552.46,-360.18"/>
<polygon fill="black" stroke="black" points="1552.9,-363.68 1562.9,-360.19 1552.9,-356.68 1552.9,-363.68"/>
</g>
</g>
</svg>
